<?xml version="1.0" encoding="utf-8"?>
<!-- Generator: Adobe Illustrator 24.3.0, SVG Export Plug-In . SVG Version: 6.00 Build 0)  -->
<svg version="1.1" id="Layer_1" xmlns="http://www.w3.org/2000/svg" xmlns:xlink="http://www.w3.org/1999/xlink" x="0px" y="0px"
	 viewBox="0 0 202.7 42.1" style="enable-background:new 0 0 202.7 42.1;" xml:space="preserve">
<style type="text/css">
	.st0{clip-path:url(#SVGID_2_);}
	.st1{fill:#231F20;}
	.st2{clip-path:url(#SVGID_4_);}
</style>
<g id="surface1">
	<g>
		<defs>
			<rect id="SVGID_1_" x="192" y="3.1" width="10.7" height="8"/>
		</defs>
		<clipPath id="SVGID_2_">
			<use xlink:href="#SVGID_1_"  style="overflow:visible;"/>
		</clipPath>
		<g class="st0">
			<path class="st1" d="M200.3,3.6c-1.3,0-2.4,1.1-2.4,2.4c0-1.3-1.1-2.4-2.4-2.4c-1.3,0-2.4,1.1-2.4,2.4l4.9,4.9l4.9-4.9h0
				C202.7,4.7,201.6,3.6,200.3,3.6"/>
		</g>
	</g>
	<path class="st1" d="M10.7,19c-0.4-0.1-0.7-0.1-1.1-0.2C7,18.4,4.6,18,4.6,16c0-1.9,2-3.4,4.5-3.4c2.8,0,5,1.5,5.3,3.7l0,0.2
		l3.4-0.9l0-0.2c-0.8-3.6-4.2-5.9-8.7-5.9c-4.6,0-7.9,2.8-8,6.6c0,4.8,4.6,5.7,8.7,6.4c3.4,0.6,6,1.2,6,3.4c0,0.7-0.3,1.3-0.8,1.9
		c-1,1-2.8,1.6-4.8,1.6c-3.7,0-6.4-2-6.7-4.8l0-0.2L0,25l0,0.2c0.7,4.3,4.8,7.4,10.2,7.4c2.9,0,5.6-1,7.3-2.7
		c1.2-1.2,1.9-2.8,1.8-4.4C19.3,21.2,15.2,19.9,10.7,19"/>
	<path class="st1" d="M40.6,23.4c-0.6,3.4-3.6,5.9-7.3,5.9c-4.6,0-7.9-3.5-7.9-8.3c0-4.8,3-8.3,7.2-8.3c3,0,5.6,2,6.4,4.8l0.1,0.2
		l3.4-0.8l0-0.2c-1.1-4.3-5.1-7.3-9.9-7.3c-6.2,0-10.7,4.9-10.7,11.6c0,6.7,4.8,11.5,11.4,11.5c5.3,0,10-3.6,10.8-8.4l0-0.2
		l-3.5-0.7L40.6,23.4"/>
	<path class="st1" d="M57.9,9.4c-2.8,0-5.4,1.3-6.9,3.4V0.6h-3.6v31H51V19.2c0-3.6,2.9-6.5,6.6-6.5c3.5,0,5.8,2.4,5.8,6.2v12.8h3.6
		V18.9C66.9,13.3,63.2,9.4,57.9,9.4"/>
	<path class="st1" d="M72.6,31.7h3.6v-31h-3.6V31.7"/>
	<path class="st1" d="M166.4,22.6c0,3.8-2.9,6.7-6.6,6.7c-3.5,0-5.7-2.4-5.7-6.2V10.2h-3.6V23c0,5.6,3.7,9.5,8.9,9.5
		c2.9,0,5.6-1.4,7-3.6l0.3,2.7h3.2V10.2h-3.6V22.6"/>
	<path class="st1" d="M189,25.3c-0.4,2.4-2.1,4.1-4.3,4.1c-2.1,0-3.6-1.6-3.6-3.9V13.2h8.7v-3h-8.7V3.2L177.6,4v6.2H173v3h4.6v12.6
		c0,3.9,2.8,6.7,6.8,6.7c3.9,0,7-2.5,7.6-6.1l0-0.1l-2.9-1.2L189,25.3"/>
	<path class="st1" d="M97.1,22.5c0,3.9-3.1,6.8-7.4,6.8c-3.3,0-5.4-1.3-5.4-3.3c0-2.1,2.1-3.4,6.5-4l6.3-0.8V22.5z M103.2,28.1
		c-0.4,0.7-1,1.2-1.5,1.2c-0.6,0-0.9-0.5-0.9-1.2V17.3c0-4.7-3.8-7.9-9.4-7.9c-5.8,0-9.7,3.5-10,6.8l0,0.1l3.3,1.4l0-0.3
		c0.2-2.3,2.7-4.8,6.7-4.8c3.4,0,6,1.8,6,4.1c0,0.9-0.8,1.3-1.6,1.4l-5.2,0.6c-8,1-9.7,4.4-9.7,7.1c0,3.8,3.5,6.5,8.4,6.5
		c3.4,0,6.3-1.4,7.9-3.9v0.1c0,2.2,1.5,3.7,3.7,3.7c1.7,0,3.5-0.9,4.4-2.3l0.1-0.1l-2-2.3L103.2,28.1"/>
	<g>
		<defs>
			<rect id="SVGID_3_" x="104" width="20" height="32.1"/>
		</defs>
		<clipPath id="SVGID_4_">
			<use xlink:href="#SVGID_3_"  style="overflow:visible;"/>
		</clipPath>
		<g class="st2">
			<path class="st1" d="M112.9,7.2c0-2.4,1.5-4.1,3.6-4.1c1.9,0,3.7,1.5,4.1,3.6l0,0.2l3.2-1.3l0-0.2C123,2.2,120,0,116.4,0
				c-4.1,0-7,2.7-7,6.7v3.6h-4.6v3h4.6l0,18.4h3.5l0-18.4h8.8v-3h-8.8V7.2"/>
		</g>
	</g>
	<path class="st1" d="M134.6,29c-4.4,0-7.6-3.4-7.6-8c0-4.8,3.2-8.3,7.6-8.3c4.4,0,7.5,3.5,7.5,8.3C142.1,25.6,138.9,29,134.6,29z
		 M142.1,13.4c-1.9-2.6-4.6-3.9-7.9-3.9c-6.2,0-10.7,4.8-10.7,11.5c0,6.5,4.5,11.3,10.7,11.3c3.2,0,5.9-1.4,7.8-3.9v2.2
		c0,4.8-3.5,8.2-8.4,8.2c-4.1,0-7.8-2.2-8.8-5.5l-0.1-0.2l-3,2.1l0.1,0.1c1.8,4,6.5,6.7,11.9,6.7c6.9,0,11.9-4.8,11.9-11.5V10.2
		h-3.2L142.1,13.4"/>
</g>
</svg>
